<?xml version="1.0" encoding="utf-8"?>
<!-- Generator: Adobe Illustrator 25.2.1, SVG Export Plug-In . SVG Version: 6.00 Build 0)  -->
<svg version="1.1" id="Layer_1" xmlns="http://www.w3.org/2000/svg" xmlns:xlink="http://www.w3.org/1999/xlink" x="0px" y="0px"
	 viewBox="0 0 37.7 53.1" style="enable-background:new 0 0 37.7 53.1;" xml:space="preserve">
<style type="text/css">
	.st0{fill:#FEA907;}
</style>
<g id="Layer_2_1_">
	<g>
		<g id="Layer_1-2_8_">
			<g>
				<path class="st0" d="M34.3,35.9c0,9.5-7.7,17.1-17.2,17.1c-2.9,0-5.7-0.7-8.2-2.1l-0.3-0.1l0-0.3c-0.2-1.3-0.3-2.7-0.2-4.1
					c-0.6-0.4-1.1-0.8-1.6-1.3c-0.3,1.1-0.5,2.1-0.7,2.7l-0.2,1l-0.7-0.7C-1.6,41.6-1.7,30.7,4.9,24c2.9-3,6.8-4.8,10.9-5.1
					c0.1,0.4,0.2,0.8,0.4,1.1c-8.8,0.5-15.5,8.1-15,17c0.1,1.5,0.4,3.1,1,4.5c0.6,1.8,1.6,3.4,2.8,4.8l0.3,0.3l0.1-0.4
					c0.4-1.6,1.1-4.1,2-6.8c2.1-6.3,5.6-12.1,10.2-17c0.4,0.5,0.8,1,1.3,1.5v0c-3,3.2-5.4,7-7,11.1c-1.7,4.3-2.4,8.9-2.1,13.5v0
					c0,0.1,0,0.1,0,0.2c0,0.1,0,0.3,0,0.4c0,0.1,0,0.2,0,0.3c0,0.1,0,0.1,0,0.2c0,0.1,0,0.3,0,0.4l0,0.1l0,0l0.1,0
					c0.8,0.4,1.7,0.8,2.5,1c5.7,1.8,11.9,0.3,16.1-3.9c0.2-0.2,0.4-0.4,0.5-0.6c0,0,0.1-0.1,0.1-0.1c0.1-0.1,0.3-0.3,0.4-0.4
					c0.1-0.1,0.1-0.1,0.2-0.2c0.1-0.1,0.2-0.3,0.3-0.4c0.1-0.1,0.1-0.1,0.2-0.2c0.1-0.1,0.2-0.3,0.3-0.4c0-0.1,0.1-0.1,0.1-0.2
					c0.1-0.1,0.2-0.3,0.3-0.4c0-0.1,0.1-0.1,0.1-0.2c0.1-0.1,0.2-0.3,0.3-0.5c0-0.1,0.1-0.1,0.1-0.2c0.1-0.2,0.2-0.4,0.3-0.6
					c0,0,0,0,0,0c0.1-0.2,0.2-0.5,0.3-0.7c0-0.1,0-0.1,0.1-0.2c0.1-0.2,0.1-0.3,0.2-0.5c0-0.1,0.1-0.2,0.1-0.2
					c0.1-0.2,0.1-0.3,0.2-0.5c0-0.1,0.1-0.2,0.1-0.3c0-0.1,0.1-0.3,0.1-0.4c0-0.1,0-0.2,0.1-0.3c0-0.2,0.1-0.3,0.1-0.5
					c0-0.1,0-0.2,0.1-0.3c0-0.2,0.1-0.3,0.1-0.5c0-0.1,0-0.2,0-0.2c0-0.2,0.1-0.4,0.1-0.6c0,0,0-0.1,0-0.1c0,0,0,0,0,0h0
					c0-0.5,0.1-1,0.1-1.5c0-2.6-0.6-5.1-1.8-7.4c0,0,0,0,0,0c-0.2-0.4-0.4-0.7-0.6-1.1c0,0,0,0,0,0c-0.1-0.1-0.2-0.2-0.2-0.3
					s-0.2-0.2-0.2-0.3L30,26.5c0.4-0.1,0.8-0.3,1.1-0.4C33.2,28.9,34.3,32.4,34.3,35.9z"/>
				<path class="st0" d="M33,38.2c0,0.1,0,0.2,0,0.2C32.9,38.4,32.9,38.3,33,38.2z"/>
				<path class="st0" d="M32.5,40.4c0,0.1-0.1,0.2-0.1,0.3C32.4,40.6,32.5,40.5,32.5,40.4z"/>
				<path class="st0" d="M32.2,41.1c0,0.1-0.1,0.2-0.1,0.2C32.2,41.3,32.2,41.2,32.2,41.1z"/>
				<path class="st0" d="M32.7,39.7c0,0.1,0,0.2-0.1,0.3C32.6,39.9,32.7,39.8,32.7,39.7z"/>
				<path class="st0" d="M30.6,27.4c-0.1-0.2-0.3-0.5-0.5-0.7C30.3,26.9,30.5,27.1,30.6,27.4z"/>
				<path class="st0" d="M30.2,26.7c0-0.1-0.1-0.1-0.1-0.2h0C30.1,26.5,30.1,26.6,30.2,26.7z"/>
				<path class="st0" d="M30.6,27.4c0.2,0.4,0.4,0.7,0.6,1.1C31.1,28.1,30.9,27.7,30.6,27.4z"/>
				<path class="st0" d="M33,37.5c0,0,0,0.1,0,0.1C33,37.6,33,37.5,33,37.5z"/>
				<path class="st0" d="M32.8,39c0,0.1,0,0.2-0.1,0.3C32.8,39.1,32.8,39,32.8,39z"/>
				<path class="st0" d="M9.7,49.6c0-0.1,0-0.1,0-0.2C9.7,49.5,9.7,49.5,9.7,49.6z"/>
				<path class="st0" d="M29.1,46.5c0,0-0.1,0.1-0.1,0.1C29,46.6,29,46.6,29.1,46.5z"/>
				<polygon class="st0" points="9.8,50.1 9.8,50.1 9.8,50.1 				"/>
				<path class="st0" d="M9.7,49.1c0-0.1,0-0.2,0-0.4C9.6,48.9,9.7,49,9.7,49.1z"/>
				<path class="st0" d="M12.4,51.2c4,1.3,8.4,0.9,12.1-1.1c-2.3,1.2-4.8,1.8-7.3,1.8C15.5,51.9,13.9,51.6,12.4,51.2z"/>
				<path class="st0" d="M30.5,44.7c0,0.1-0.1,0.1-0.1,0.2C30.4,44.8,30.5,44.7,30.5,44.7z"/>
				<path class="st0" d="M32,41.9c0,0.1,0,0.1-0.1,0.2C31.9,42,31.9,41.9,32,41.9z"/>
				<path class="st0" d="M29.6,45.9c-0.1,0.1-0.1,0.1-0.2,0.2C29.5,46,29.6,46,29.6,45.9z"/>
				<path class="st0" d="M30.9,44c0,0.1-0.1,0.1-0.1,0.2C30.8,44.2,30.9,44.1,30.9,44z"/>
				<path class="st0" d="M31.3,43.4c0,0.1-0.1,0.1-0.1,0.2C31.2,43.5,31.2,43.5,31.3,43.4z"/>
				<path class="st0" d="M31.6,42.7L31.6,42.7L31.6,42.7z"/>
				<path class="st0" d="M30.1,45.3c-0.1,0.1-0.1,0.1-0.2,0.2C30,45.4,30,45.4,30.1,45.3z"/>
				<path class="st0" d="M21.8,35.4c0,2-1.7,3.7-3.7,3.7s-3.7-1.7-3.7-3.7c0-2,1.7-3.7,3.7-3.7C20.2,31.7,21.8,33.4,21.8,35.4
					C21.8,35.4,21.8,35.4,21.8,35.4z"/>
				<path class="st0" d="M23.2,46.2c0,0.3-0.1,0.7-0.2,1c-0.7,1.2-2.1,1.9-3.5,1.8c-0.5,0-1.1-0.1-1.6-0.3c-1.2-0.3-2-1.3-2.1-2.5
					c0-1.5,1.7-2.8,3.7-2.8S23.2,44.7,23.2,46.2z"/>
				<path class="st0" d="M32.1,39.2c0,0.8-0.3,1.6-0.6,2.3c-0.8,1.7-2.2,2.8-3,2.4c-0.1,0-0.1-0.1-0.2-0.1c-0.6-0.6-0.6-2.1,0.2-3.7
					c0.8-1.7,2.1-2.8,3-2.4C31.9,37.8,32.1,38.4,32.1,39.2z"/>
				<path class="st0" d="M9.7,30.8c-1.3,1.5-3.2,1.9-4.4,0.9c-0.3-0.3-0.5-0.6-0.6-1c-0.3-1.2,0-2.6,0.9-3.5
					c0.7-0.9,1.8-1.4,2.9-1.5c0.5,0,1.1,0.2,1.5,0.5C11,27.3,10.9,29.3,9.7,30.8z"/>
				<path class="st0" d="M11.1,23.7c-1.3,0.5-2.5,0.6-2.8,0.1c0,0,0,0,0-0.1c-0.2-0.6,0.7-1.5,2-2c1.2-0.5,2.3-0.6,2.7-0.2
					c0.1,0,0.1,0.1,0.1,0.2C13.3,22.2,12.4,23.1,11.1,23.7z"/>
				<path class="st0" d="M2.6,40.3c-0.6,0-1.2-1.3-1.2-3.1c-0.1-1.7,0.3-3.2,0.9-3.2h0c0.3,0,0.6,0.4,0.8,0.9
					c0.3,0.7,0.4,1.4,0.4,2.2C3.6,38.8,3.2,40.2,2.6,40.3z"/>
				<path class="st0" d="M28.6,32.6c-1,0.2-2.1-0.7-2.4-2.1c-0.1-0.5-0.1-1.1,0-1.6c0.1-0.6,0.6-1.1,1.2-1.3
					c0.9-0.1,1.8,0.4,2.1,1.3c0.1,0.2,0.2,0.5,0.3,0.8C30.2,31.1,29.6,32.4,28.6,32.6z"/>
				<path class="st0" d="M26.6,4.8c-0.7,0-1.4,0.1-2.1,0.2c0.1-0.8,0.5-1.7,1-2.4c0.6-0.8,1.5-1.3,2.4-1.5c0,0.1,0,0.1,0.1,0.2
					c0.2,0.4,0.7,0.6,1.2,0.4s0.6-0.7,0.4-1.2l0,0c-0.2-0.4-0.7-0.6-1.2-0.4c0,0,0,0,0,0c-0.2,0.1-0.4,0.3-0.5,0.5
					c-1.4,0.2-2.7,0.9-3.5,2.1c-0.6,0.7-1,1.6-1.1,2.6c-1.6,0.5-3.1,1.4-4.4,2.5c-0.4-0.6-0.9-1.2-1.4-1.7c-0.8-0.8-1.7-1.4-2.8-1.7
					c0,0,0-0.1,0-0.1c-0.1-0.5-0.5-0.8-1-0.8c-0.5,0.1-0.8,0.5-0.8,1C13,5,13.5,5.3,14,5.3c0.2,0,0.4-0.1,0.6-0.3
					c0.9,0.4,1.6,1,2.2,1.8c0.5,0.6,1,1.2,1.3,1.9c-2.4,2.8-3.3,6.6-2.3,10.2c0.1,0.4,0.2,0.8,0.4,1.1c0.1,0.2,0.2,0.5,0.3,0.7
					c0.1,0.3,0.3,0.5,0.4,0.8c0.2,0.3,0.4,0.6,0.6,0.9c0.4,0.5,0.8,1,1.3,1.5c3,2.9,7.3,3.9,11.3,2.6h0c0.4-0.1,0.8-0.3,1.1-0.4
					c5.6-2.5,8.1-9.1,5.5-14.8C34.9,7.3,30.9,4.8,26.6,4.8z M26.5,25.9c-5.5,0-9.9-4.4-9.9-9.9c0-5.5,4.4-9.9,9.9-9.9
					c5.5,0,9.9,4.4,9.9,9.9C36.5,21.4,32,25.9,26.5,25.9C26.5,25.9,26.5,25.9,26.5,25.9z"/>
				<path class="st0" d="M33.3,18.4c-0.3-0.7-1.2-0.9-1.8-0.6c-0.5,0.2-0.7,0.7-0.7,1.2c0.3,0.7,1.2,0.9,1.8,0.6
					C33,19.4,33.3,18.9,33.3,18.4z M32.3,19.3c-0.6,0.1-1.1-0.1-1.2-0.4c-0.1-0.4,0.3-0.8,0.8-1c0.6-0.1,1.1,0.1,1.2,0.4
					S32.8,19.2,32.3,19.3z"/>
				<path class="st0" d="M33.1,18.4c-0.1-0.4-0.6-0.6-1.2-0.4c-0.6,0.1-0.9,0.6-0.8,1c0.1,0.4,0.6,0.6,1.2,0.4
					C32.8,19.2,33.2,18.8,33.1,18.4z M31.9,18.7c-0.2,0.1-0.4,0-0.4-0.2c0-0.2,0.1-0.3,0.3-0.4c0.1-0.1,0.3,0,0.4,0.1
					c0.1,0.1,0,0.3-0.1,0.4C32,18.7,31.9,18.7,31.9,18.7z"/>
				<path class="st0" d="M27,21.1c-2-0.1-3.9-0.9-5.5-2.1c0.1-0.1,0.2-0.1,0.4-0.2c0.2-0.1,0.5-0.1,0.7-0.2c-0.6-0.1-1.2,0-1.8,0.3
					c-0.4,0.3-0.6,0.8-0.6,1.4c0.1-0.2,0.2-0.4,0.4-0.6c0.1-0.1,0.2-0.2,0.4-0.3c0,0,0.9,4.3,4.9,5c5.9,1,7.1-4,7.1-4l0.7-0.6
					C31.5,20.6,29.2,21,27,21.1z M24.3,23.5c-0.8-0.4-1.4-1.1-1.7-1.9c0,0,1.8-0.1,2.3,0.6c0.2,0.3,0.5,0.6,0.7,1
					c0-0.1-0.2-0.6-0.2-0.6c0.5,0,1,0.1,1.3,0.4c0.2,0.3,0.4,0.7,0.5,1.1C26.2,24.1,25.2,23.9,24.3,23.5L24.3,23.5z"/>
				<path class="st0" d="M26.2,17.6c-0.6,0.2-1.6-0.8-2.1-2.3c-0.2-0.6-0.3-1.3-0.3-1.9l0.9,0.1c0,0-0.4-0.6-0.6-1
					c0.1-0.1,0.2-0.2,0.3-0.2c0.6-0.2,1.6,0.8,2.1,2.3S26.8,17.4,26.2,17.6z"/>
				<path class="st0" d="M33.3,15.3c-0.5,0.2-1.3-0.7-1.9-2c-0.2-0.5-0.4-1-0.5-1.5l0.7,0.1c0,0-0.4-0.7-0.7-1.1
					c0-0.1,0.1-0.1,0.2-0.2c0.5-0.2,1.3,0.7,1.9,2C33.6,13.9,33.7,15.1,33.3,15.3z"/>
			</g>
		</g>
	</g>
</g>
</svg>
