<?xml version="1.0" encoding="utf-8"?>
<!-- Generator: Adobe Illustrator 25.2.1, SVG Export Plug-In . SVG Version: 6.00 Build 0)  -->
<svg version="1.1" id="Layer_1" xmlns="http://www.w3.org/2000/svg" xmlns:xlink="http://www.w3.org/1999/xlink" x="0px" y="0px"
	 viewBox="0 0 45.3 45.6" style="enable-background:new 0 0 45.3 45.6;" xml:space="preserve">
<style type="text/css">
	.st0{fill:#FEA907;}
</style>
<g id="Layer_2_1_">
	<g>
		<g id="Layer_1-2_8_">
			<path class="st0" d="M45,40.8L17,0.2l-1-0.2l-0.1,4.4l0,0c-0.5-0.4-1-0.9-1.5-1.4c-0.3-0.3-0.6-0.7-0.9-1l-0.1,0H13
				c-0.3,0-0.4,0.3-0.4,0.6l0.6,3.1c0,0.2,0.1,0.3,0.1,0.5c0.1,0.4,0.2,0.9,0,1.1c-0.4,0.6-0.8,0.4-1.4,0c-0.3-0.3-0.7-0.4-1.2-0.5
				l-0.1,0c-0.2,0.1-0.3,0.2-0.3,0.3c0,0.2,0.1,0.5,0.2,0.7c0.1,0.1,0.1,0.2,0.2,0.3C9.3,7.3,8.4,7,7.5,7.2l-0.1,0v0.1
				c0.1,0.4,0.3,0.8,0.7,1c0.1,0.1,0.2,0.2,0.3,0.3C7.7,8.3,7,8.1,6.3,8.1c0,0-0.1,0-0.2,0C5.9,8,5.3,8,5.2,8.6v0.1l0,0.1
				C5.5,8.9,5.7,9.1,6,9.2c0.3,0.1,0.5,0.3,0.7,0.5c0.1,0.3,0,0.3,0,0.3c-2.3,0.7-4.2,1.4-6.1,2.1c-0.5,0.4-0.7,1-0.6,1.6
				c0.2,0.6,0.4,1.2,0.5,1.7c0.9,2.3,1.3,4.8,1.2,7.3c0,0.2,0,0.3,0.2,0.4c0.2,0.1,0.4,0.1,0.6,0l1.8-2.1c0.1,0.1,0.1,0.3,0,0.6
				c0,0.2,0,0.4,0,0.5v0.1c0,0.3,0,0.8,0.2,1c0.1,0.1,0.3,0.1,0.4,0l0.1,0c0.1-0.2,0.3-0.3,0.4-0.5c0.3-0.3,0.5-0.6,0.8-0.9v0.6
				c0,0.5,0,1,0,1.5L0.7,24v0.2c0,1.6,0,3.2,0,4.9c0,1.8,0,3.6,0,5.6l0.2,1.2l0,0c0.4,0.7,1,1.3,1.8,1.5l10.2,0l1.2-0.4l0.1,0
				c0.6-0.4,1-1.1,1.1-1.8l0-11.2l-5.8-0.1c0-0.4,0-0.8,0-1.1c-0.3-0.9,0.1-1.9,0.8-2.4c0.1-0.1,0.2-0.1,0.2-0.1c0,0.1,0,0.3,0,0.4
				c0,0.4,0,0.9,0.4,0.9H11l0,0c0.5-0.4,1-0.8,1.3-1.4c0.6-0.8,1.2-1.6,2.2-1.6c0.6,0.1,1.1,0.5,1.3,1.1l0.1,18l-0.3,1.5
				c-0.4,0.9-1,1.7-1.7,2.4c-0.2,0.2-0.4,0.4-0.6,0.7l0,0.1c-0.2,0.6-0.2,1.3,0,1.9c0.3,0.6,0.9,1.1,1.5,1.3l27.4,0.1
				c0.9-0.1,1.7-0.6,2.3-1.3l0,0C45.3,43.3,45.5,42,45,40.8z M7.5,18.2h1l0,5.7l-1.1,0L7.5,18.2z M1.7,32.7l1.2,1.4l-1.1,1.3
				C1.5,34.5,1.5,33.6,1.7,32.7z M12.8,28.8l-1.4-1.5c0.5,0,1,0,1.5,0c0.3,0,0.6,0,1,0l0.1,0.1c-0.3,0.4-0.6,0.8-0.9,1.1
				C13,28.6,12.9,28.7,12.8,28.8L12.8,28.8z M14,32.3l-1.2,1.4l-1.9-2.1l1.2-1.3C12.7,30.9,13.5,31.6,14,32.3L14,32.3z M11.7,29.1
				c-0.5,0.7-1.1,1.5-1.8,2.1c-0.4-0.4-0.9-0.9-1.3-1.3l0-0.1l1.8-1.9L11.7,29.1z M9.6,32.3c-0.3,0.4-0.7,0.8-1,1.2l-0.1,0.1
				l-1.8-2.1l1.1-1.3C8.4,30.9,9,31.6,9.6,32.3z M8.7,28.4c-0.1,0.1-0.3,0.3-0.4,0.4c-0.4-0.3-0.7-0.6-1-1c-0.1-0.1-0.2-0.3-0.3-0.4
				c0.7-0.1,1.3-0.1,2-0.1c0.2,0,0.3,0,0.5,0l0.1,0.1C9.3,27.8,9,28.1,8.7,28.4z M7.4,29.2l-1.8,2h0l-1.3-1.4l1.8-2L7.4,29.2z
				 M5.2,32.2c-0.4,0.5-0.8,1-1.3,1.4c-0.2-0.2-0.4-0.4-0.6-0.6c-0.5-0.5-0.9-0.9-1.3-1.4c0.2-0.3,0.5-0.7,0.8-0.9
				c0.2-0.2,0.3-0.3,0.5-0.5L5.2,32.2z M3.9,28.7l-1.2-1.3c0.8-0.1,1.6-0.1,2.4,0l0,0L3.9,28.7z M3,29.1c-0.3,0.4-0.7,0.7-1,1.1
				l-0.3,0.3l-0.1-2.6l0.1-0.2c0.4,0.3,0.7,0.6,1,1C2.8,28.9,2.9,29,3,29.1L3,29.1z M4.3,36.6c-0.7,0.1-1.4-0.1-2-0.4l0.9-1.1
				c0.5,0.4,0.9,0.9,1.2,1.4c0,0,0.1,0.1,0.1,0.1H4.3z M4.3,34.8c0.4-0.5,0.8-0.9,1.1-1.3c0.3-0.3,0.5-0.5,0.7-0.8
				c0.2,0.2,0.5,0.5,0.7,0.7C7,33.6,7.2,33.8,7.4,34l-1.9,2.1L4.3,34.8z M6.5,36.6C6.5,36.6,6.5,36.6,6.5,36.6l1.2-1.6
				c0.5,0.5,1,1,1.4,1.5L6.5,36.6z M9.2,35.3c-0.2-0.2-0.3-0.4-0.5-0.5c0.6-0.7,1.2-1.4,1.8-2l1.3,1.4L9.9,36
				C9.7,35.8,9.4,35.5,9.2,35.3L9.2,35.3z M11.4,36.6c-0.2,0-0.3,0-0.5,0l0,0c0.1-0.1,0.2-0.3,0.4-0.4c0.2-0.3,0.5-0.7,0.8-0.9
				l1.2,1.3C12.7,36.7,12.1,36.7,11.4,36.6L11.4,36.6z M14.1,35.8l-1-1l1.3-1.4C14.5,34.2,14.4,35.1,14.1,35.8L14.1,35.8z
				 M14.4,31.2l-1.2-1.3c0.4-0.5,0.8-1,1.2-1.4V31.2z M14.3,24.9c0.1,0.3,0.1,0.6,0,0.9v0.5H1.7c0-0.1,0-0.1,0-0.2
				c-0.1-0.4-0.1-0.9,0-1.3L14.3,24.9z"/>
		</g>
	</g>
</g>
</svg>
