<?xml version="1.0" encoding="utf-8"?>
<!-- Generator: Adobe Illustrator 25.2.1, SVG Export Plug-In . SVG Version: 6.00 Build 0)  -->
<svg version="1.1" id="Layer_1" xmlns="http://www.w3.org/2000/svg" xmlns:xlink="http://www.w3.org/1999/xlink" x="0px" y="0px"
	 viewBox="0 0 51.2 48.1" style="enable-background:new 0 0 51.2 48.1;" xml:space="preserve">
<style type="text/css">
	.st0{fill-rule:evenodd;clip-rule:evenodd;fill:#FEA907;}
</style>
<g id="Layer_2_1_">
	<g>
		<g id="Layer_1-2_8_">
			<g id="Spar_8_">
				<path class="st0" d="M11.6,29.8c-0.7,1-1.5,1.9-2.2,2.8l13.6,0c-0.1,1.8,0.3,4-0.5,5.5c-1,1.6-2.8,2.6-4.7,2.6
					c-5.5-0.5-9.1-5.3-11.2-9.8c-0.2-0.4-0.3-0.7-0.4-1.1C4.3,24.4,5.3,17.4,8.9,13c5.5-7,14.9-9.9,23.4-7.1c5.5,1.8,10,5.8,12.4,11
					c1.6,4.1,1.8,8.7,0.4,13c-0.8,2.7-2.3,5.2-4.3,7.2c-2.5,2.1-5.1,4.2-8.5,3.6c-1.8-0.4-3.2-1.7-3.7-3.5c-0.3-1.5-0.4-3-0.1-4.6
					l13.8,0l-0.4-0.5c-0.6-0.8-1.3-1.5-1.9-2.3h0C33.9,22.3,29.1,14,25.6,5C22,13.8,17.3,22.2,11.6,29.8L11.6,29.8z M0.8,29.8
					c2.3,8.2,8.6,14.6,16.8,17c10.2,3.1,21.3,0,28.3-8c2.1-2.6,3.7-5.7,4.5-9c1.5-5.6,0.8-11.6-1.9-16.7c-2.1-3.6-4.9-6.7-8.4-9
					c-7.6-5-18.9-5.4-26.8-1.2C5.1,7-0.5,15.7,0,25.2C0.1,26.7,0.4,28.3,0.8,29.8"/>
			</g>
		</g>
	</g>
</g>
</svg>
