<?xml version="1.0" encoding="utf-8"?>
<!-- Generator: Adobe Illustrator 25.2.1, SVG Export Plug-In . SVG Version: 6.00 Build 0)  -->
<svg version="1.1" id="Layer_1" xmlns="http://www.w3.org/2000/svg" xmlns:xlink="http://www.w3.org/1999/xlink" x="0px" y="0px"
	 viewBox="0 0 67.6 50.8" style="enable-background:new 0 0 67.6 50.8;" xml:space="preserve">
<style type="text/css">
	.st0{fill:#FEA907;}
</style>
<g id="Layer_2_1_">
	<g>
		<g id="Layer_1-2_8_">
			<g id="Wiko_logo_8_">
				<path class="st0" d="M67.4,6.8c-1.8,6.3-4.5,16.8-7.3,26c-1.5,5-3.2,10.6-4.3,13.1c-1.9,4.2-6.8,6-11,4.1
					c-1.8-0.8-3.3-2.3-4.1-4.1c-1.3-3.3-4.2-12.6-5.3-16c-0.4-1.3-1.7-2.2-3.1-2.1c-1.4-0.1-2.6,0.8-3.1,2.1
					c-1.2,3.4-3.2,12.6-4.5,16c-1.1,2.9-3.9,4.9-7,4.9c-3.1-0.1-5.8-2-6.8-4.9C10.2,44.3,1,21.5,0.6,20.4C0.3,19.6,0.1,18.8,0,18
					c0-2.8,2.2-5,4.9-5c0,0,0,0,0,0c2.2,0,4.1,1.4,4.7,3.5c1.1,4.1,4.4,18.1,4.8,19.5c0.4,1.8,2.2,2.9,4,2.4
					c1.2-0.3,2.1-1.2,2.4-2.4c-0.1,0.3,5.5-21.6,6.6-25C28.1,9,30,7.5,32.1,7.5c2.2,0,4.1,1.5,4.7,3.5l0,0c0.7,1.9,5.8,19.4,7.4,25
					c0.4,1.5,1.7,2.5,3.2,2.5c1.5,0,2.8-1.1,3.2-2.5c1.9-7.8,7-31.8,7-31.8c0.4-2.7,2.9-4.6,5.6-4.2c2.5,0.4,4.3,2.5,4.2,5
					C67.6,5.6,67.6,6.2,67.4,6.8"/>
			</g>
		</g>
	</g>
</g>
</svg>
