<?xml version="1.0" encoding="utf-8"?>
<!-- Generator: Adobe Illustrator 25.2.1, SVG Export Plug-In . SVG Version: 6.00 Build 0)  -->
<svg version="1.1" id="Layer_1" xmlns="http://www.w3.org/2000/svg" xmlns:xlink="http://www.w3.org/1999/xlink" x="0px" y="0px"
	 viewBox="0 0 47.4 45.1" style="enable-background:new 0 0 47.4 45.1;" xml:space="preserve">

<path d="M17.8,0v56.4H0l0.2,1.2c0,0.2,1.2,6.1,6.6,8.2c1.3,0.5,2.7,0.8,4.1,0.8c20.9,0.1,36.7,0,43.7,0c1.5,0,4.8,0,7.2-2.3
	c2.2-2,2.7-4.9,2.8-6.6V0H17.8z M7.6,64c-3.1-1.2-4.5-4-5.1-5.5h15.3l0,0.1h27.9c0.3,1.1,1.2,4.1,3.9,6.1H11.1
	C9.9,64.6,8.6,64.4,7.6,64z"/>
</svg>

