<?xml version="1.0" encoding="utf-8"?>
<!-- Generator: Adobe Illustrator 25.2.1, SVG Export Plug-In . SVG Version: 6.00 Build 0)  -->
<svg version="1.1" id="Layer_1" xmlns="http://www.w3.org/2000/svg" xmlns:xlink="http://www.w3.org/1999/xlink" x="0px" y="0px"
	 viewBox="0 0 47.4 45.1" style="enable-background:new 0 0 47.4 45.1;" xml:space="preserve">
<style type="text/css">
	.st0{fill:#FEA907;}
</style>
<g id="Layer_2_1_">
	<g>
		<g id="Layer_1-2_8_">
			<g>
				<path id="path22_8_" class="st0" d="M45.9,11.4h-4l-1,1.2c-0.2,0.2-0.1,0.4,0.1,0.4l1.3,0.6l3.7-1.7c0.1-0.1,0.2-0.2,0.1-0.3
					C46.1,11.5,46,11.4,45.9,11.4L45.9,11.4z"/>
				<path class="st0" d="M38.1,12.2c0-0.1-0.1-0.1-0.1-0.2c-0.1-0.1-0.1-0.1-0.2-0.1c-0.2-0.1-0.4-0.2-0.6-0.2c-0.1,0-0.3,0-0.4,0.1
					c-0.1,0.1-0.3,0.1-0.4,0.2c-0.4,0.4-0.4,1.1,0,1.5c0,0,0,0,0,0c0.4,0.4,1.1,0.4,1.6,0C38.4,13.2,38.4,12.7,38.1,12.2L38.1,12.2z
					 M38,13.4c-0.4,0.4-1,0.4-1.3,0c-0.4-0.4-0.4-1,0-1.3s1-0.4,1.3,0c0,0,0,0,0,0C38.3,12.5,38.3,13.1,38,13.4z"/>
				<path id="path26_8_" class="st0" d="M37.8,27.9c-1.6,2.1-4.1,3.3-6.7,3.2h-4.9c-1.1,0.6-2.3,1.2-3.4,1.6
					c-0.1,0.1-0.2,0.1-0.1,0.3L27,45.1h2.4l-4-11.1h0.1C28.1,34,34.4,33.3,37.8,27.9z M32.3,22.4C32.2,22.4,32.2,22.4,32.3,22.4
					c-0.7,0.8-1.4,1.4-2.1,2c-1.2,1-2.5,1.8-3.9,2.5c-0.3,0.1-0.6,0.3-0.9,0.4c-0.6,0.2-1.2,0.4-1.7,0.6c-1.7,0.5-3.5,0.7-5.2,0.6
					h-5.8c-0.2,0-0.3-0.2-0.2-0.3c0.7-0.9,1.4-1.9,2.1-2.8c0.8-1,1.6-1.9,2.4-2.9c1.1-1.2,2.2-2.4,3.3-3.5c0.4-0.4,0.8-0.9,1.3-1.3
					c1.3-1.3,2.6-2.5,4-3.7l-9.7,8.1c-0.8,0.7-1.8,1.1-2.9,1.1H0.8c-0.3,0-0.2,0.3-0.2,0.4c1,3.1,3.9,5.1,7.1,5l-2.9,3
					C4.8,31.7,4.8,32,5,32h10.9c6.4,0.3,12.4-2.9,15.8-8.3c0.3-0.4,0.5-0.9,0.8-1.3C32.4,22.4,32.4,22.4,32.3,22.4L32.3,22.4z
					 M30.8,35.5c-0.7,0.2-1.5,0.4-2.2,0.5l3.2,9.1h2.4L30.8,35.5z M46.2,11.6c0-0.1-0.1-0.1-0.1-0.1c0,0-0.1,0-0.1,0h-4l0,0l-1,1.2
					c0,0-0.1,0.1-0.1,0.1c0,0,0,0.1,0,0.1c0,0.1,0.1,0.2,0.2,0.2l1.3,0.6l1.3-0.6l2.4-1.1C46.2,11.8,46.2,11.7,46.2,11.6z
					 M38.5,12.9c0.2,0.7,0,1.4-0.5,1.9h0C38.5,14.4,38.7,13.6,38.5,12.9z"/>
				<path id="path30_8_" class="st0" d="M42.3,13.6L41,13.1c0,0-0.1,0-0.1-0.1c0,0,0-0.1,0-0.1c0,0,0-0.1,0-0.1c0,0,0-0.1,0.1-0.1
					l1-1.2c0,0,0,0,0,0h0c-1.3-2-3.6-3.2-6-3.1c-1.8,0-3.6,0.5-5.1,1.5c-1.9,1.3-3.6,2.7-5.3,4.2c-1.4,1.2-2.7,2.4-4,3.7
					c-0.4,0.4-0.9,0.8-1.3,1.3c-1.1,1.1-2.2,2.3-3.3,3.5c-0.8,0.9-1.6,1.9-2.4,2.9c-0.7,0.9-1.4,1.8-2.1,2.8c-0.1,0.2,0,0.3,0.2,0.3
					h5.8c1.8,0.1,3.5-0.2,5.2-0.6c0.6-0.2,1.2-0.4,1.7-0.6c0.3-0.1,0.6-0.2,0.9-0.4c1.4-0.6,2.7-1.5,3.9-2.5c0.7-0.6,1.4-1.3,2-2v0
					c0,0,0,0,0.1,0c0.1-0.1,0.2-0.1,0.3,0c0.1,0.1,0.1,0.2,0.1,0.4c-1.3,3.3-3.5,6.2-6.5,8.3h4.9c2.6,0.1,5.1-1.1,6.7-3.2
					C40.1,23.4,41.6,18.6,42.3,13.6L42.3,13.6z M38,14.9c-0.2,0.2-0.4,0.3-0.6,0.4c-0.5,0.2-1.1,0.2-1.6-0.1
					c-0.2-0.1-0.4-0.2-0.5-0.4l0,0c-0.8-0.8-0.8-2,0-2.8c0,0,0,0,0,0h0c0.7-0.7,1.8-0.8,2.6-0.2h0c0,0,0,0,0,0c0,0,0.1,0,0.1,0.1
					L38,12v0c0.1,0,0.1,0.1,0.1,0.2c0,0,0,0,0,0c0,0,0,0,0,0c0,0,0,0.1,0.1,0.1c0.1,0.1,0.2,0.3,0.2,0.4c0,0,0,0.1,0,0.1
					C38.7,13.6,38.5,14.4,38,14.9L38,14.9z M37.8,11.9C37.8,11.9,37.8,11.9,37.8,11.9C37.8,11.9,37.8,11.9,37.8,11.9
					C37.8,11.9,37.9,11.9,37.8,11.9C37.9,11.9,37.9,11.9,37.8,11.9L37.8,11.9z M40.7,27.2c-0.3,0.6-0.6,1.2-1,1.8
					c-1.6,2.6-4,4.6-6.9,5.7l3.7,10.3h10.7C45.2,38.9,42.9,32.8,40.7,27.2L40.7,27.2z M3.8,34.3C2.6,37.6,1.3,41.2,0,45.1h10.9
					l3.5-10.8H3.8z M29.9,0H17.7c-1,2.3-4.8,10.1-9.2,20.6h4.5c0.5,0,1-0.1,1.4-0.4l6.3-5.2c1-2.8,2.1-5.6,3.2-8
					c0.6,1.3,1.1,2.6,1.6,3.9c2.4-2,4-3.1,4.1-3.1l0,0c1-0.7,2.1-1.2,3.2-1.5C31.4,3.2,30.3,1,29.9,0z"/>
			</g>
		</g>
	</g>
</g>
</svg>
